<?xml version="1.0" encoding="UTF-8"?>
<svg width="240px" height="38px" viewBox="0 0 240 38" version="1.1" xmlns="http://www.w3.org/2000/svg" xmlns:xlink="http://www.w3.org/1999/xlink">
    <!-- Generator: Sketch 52.6 (67491) - http://www.bohemiancoding.com/sketch -->
    <title>Group 6</title>
    <desc>Created with Sketch.</desc>
    <g id="Symbols" stroke="none" stroke-width="1" fill="none" fill-rule="evenodd">
        <g id="::-Navigation" transform="translate(-45.000000, -49.000000)">
            <g transform="translate(0.000000, -3.000000)" id="apa-color">
                <g transform="translate(45.000000, 52.000000)">
                    <g id="Group-6">
                        <path d="M7.9745035,23.1501911 L6.78751049,23.1501911 C6.15142657,23.1501911 5.64834965,23.6530578 5.64834965,24.29568 L5.64834965,32.9145022 C5.64834965,33.5550133 6.15142657,34.1055911 6.78751049,34.1055911 C7.42569231,34.1055911 7.9745035,33.5550133 7.9745035,32.9145022 L7.9745035,23.1501911 Z M7.9745035,37.3596578 L7.9745035,36.2133244 C6.65156643,37.7265689 4.42023776,37.9106578 3.18960839,37.49688 C0.910867133,36.7195689 -4.1958042e-05,35.2063244 -4.1958042e-05,31.9509911 L-4.1958042e-05,25.4876133 C-4.1958042e-05,22.9205022 0.136321678,19.38988 6.78751049,19.38988 L7.9745035,19.38988 L7.92918881,11.1388133 C7.92918881,10.4974578 7.42569231,9.94772444 6.78751049,9.94772444 C6.15142657,9.94772444 5.64834965,10.4974578 5.64834965,11.1388133 L5.64834965,17.09848 L-4.1958042e-05,17.09848 L-4.1958042e-05,12.4692356 C-4.1958042e-05,9.90128 0.136321678,6.41752444 6.78751049,6.41752444 C13.4844336,6.41752444 13.5767413,9.90128 13.5767413,12.4692356 L13.5767413,37.3596578 L7.9745035,37.3596578 Z" id="Fill-1" fill="#A6C539"></path>
                        <path d="M23.9165035,37.3158733 L23.9165035,35.8494956 C23.28,36.9020956 22.0481119,37.6346511 20.7276923,37.6346511 C17.6299301,37.6346511 15.9448951,35.9867178 15.9448951,32.7782511 L15.9448951,6.69251778 L21.5937063,6.69251778 L21.5937063,32.8686067 C21.5937063,33.5099622 22.0934266,34.0609622 22.7316084,34.0609622 C23.3697902,34.0609622 23.9165035,33.5099622 23.9165035,32.8686067 L23.9165035,6.69251778 L29.5195804,6.69251778 L29.5195804,37.3158733 L23.9165035,37.3158733 Z" id="Fill-4" fill="#A6C539"></path>
                        <path d="M38.6772168,37.6347778 C32.0264476,37.6347778 31.8884056,34.1531333 31.8884056,31.5839111 L31.8884056,25.3489556 L37.5388951,25.3489556 L37.5388951,32.9151778 C37.5388951,33.5544222 38.039035,34.0606667 38.6772168,34.0606667 C39.3153986,34.0606667 39.8151189,33.5544222 39.8151189,32.9151778 L39.8151189,24.2034667 C39.8151189,23.5612667 39.3153986,23.0106889 38.6772168,23.0106889 L36.3057483,23.0106889 C35.8526014,23.0106889 35.440993,22.9203333 35.0776364,22.8287111 C32.8001538,22.0045333 31.8884056,20.4912889 31.8884056,17.2372222 L31.8884056,12.4230444 C31.8884056,9.85508889 32.0264476,6.37217778 38.6772168,6.37217778 C45.3716224,6.37217778 45.4639301,9.85508889 45.4639301,12.4230444 L45.4639301,17.0522889 L39.8151189,17.0522889 L39.8151189,11.0938889 C39.8151189,10.4525333 39.3153986,9.94755556 38.6772168,9.94755556 C38.039035,9.94755556 37.5388951,10.4525333 37.5388951,11.0938889 L37.5388951,18.1998889 C37.5388951,18.8420889 38.039035,19.3449556 38.6772168,19.3449556 L41.0432308,19.3449556 C41.5005734,19.3449556 41.9109231,19.4830222 42.2742797,19.5746444 C44.5517622,20.4000889 45.4639301,21.9120667 45.4639301,25.1682444 L45.4639301,31.5839111 C45.4639301,34.1531333 45.3716224,37.6347778 38.6772168,37.6347778" id="Fill-6" fill="#A6C539"></path>
                        <path d="M54.6196364,37.6347778 C47.9692867,37.6347778 47.8329231,34.1531333 47.8329231,31.5839111 L47.8329231,6.69222222 L53.4813147,6.69222222 L53.4813147,9.57937778 L61.4084476,9.57937778 L61.4084476,14.3023556 L53.4813147,14.3023556 L53.4813147,32.9151778 C53.4813147,33.5544222 53.9831329,34.0606667 54.6196364,34.0606667 C55.2578182,34.0606667 55.7575385,33.5544222 55.7575385,32.9151778 L55.7575385,19.3449556 L61.4084476,19.3449556 L61.4084476,31.5839111 C61.4084476,34.1531333 61.3161399,37.6347778 54.6196364,37.6347778" id="Fill-8" fill="#A6C539"></path>
                        <polygon id="Fill-10" fill="#A6C539" points="63.8676923 37.3597 69.5160839 37.3597 69.5160839 6.7849 63.8676923 6.7849"></polygon>
                        <path d="M79.9022098,37.3158733 L79.9022098,11.1393622 C79.9022098,10.4984289 79.4024895,9.94742889 78.7647273,9.94742889 C78.1257063,9.94742889 77.6247273,10.4984289 77.6247273,11.1393622 L77.6247273,37.3158733 L71.9771748,37.3158733 L71.9771748,6.69251778 L77.6247273,6.69251778 L77.6247273,8.15889556 C78.2171748,7.10502889 79.4473846,6.37205111 80.7220699,6.37205111 C83.8668252,6.37205111 85.5506014,8.02378444 85.5506014,11.2309844 L85.5506014,37.3158733 L79.9022098,37.3158733 Z" id="Fill-12" fill="#A6C539"></path>
                        <path d="M100.324406,11.5551244 C100.324406,10.9129244 99.8234266,10.3619244 99.183986,10.3619244 L98.0016084,10.3619244 L98.0016084,27.4180133 L99.183986,27.4180133 C99.8234266,27.4180133 100.324406,26.9130356 100.324406,26.2729467 L100.324406,11.5551244 Z M99.183986,31.1314578 L98.0016084,31.1314578 L98.0016084,37.36768 L92.3964336,37.36768 L92.3964336,6.78696889 L99.183986,6.78696889 C105.838951,6.78696889 105.974895,10.2715689 105.974895,12.8834356 L105.974895,25.0797467 C105.974895,27.6477022 105.838951,31.1314578 99.183986,31.1314578 Z" id="Fill-13" fill="#DC5928"></path>
                        <path d="M115.907035,11.1421911 C115.907035,10.4999911 115.407315,9.95025778 114.767874,9.95025778 C114.130531,9.95025778 113.628294,10.4999911 113.628294,11.1421911 L113.628294,19.3945244 L115.907035,19.3945244 L115.907035,11.1421911 Z M114.767874,37.6885689 C108.115427,37.6885689 107.979063,34.2048133 107.979063,31.6368578 L107.979063,12.4713467 C107.979063,9.85779111 108.115427,6.37276889 114.767874,6.37276889 C121.420322,6.37276889 121.556685,9.85779111 121.556685,12.4713467 L121.556685,23.1079689 L113.628294,23.1079689 L113.628294,32.9199911 C113.628294,33.5626133 114.130531,34.11108 114.767874,34.11108 C115.407315,34.11108 115.907035,33.5626133 115.907035,32.9199911 L115.907035,25.4475022 L121.556685,25.4475022 L121.556685,31.6368578 C121.556685,34.2048133 121.420322,37.6885689 114.767874,37.6885689 Z" id="Fill-14" fill="#DC5928"></path>
                        <path d="M130.712811,37.6428422 C124.061622,37.6428422 123.925259,34.1590867 123.925259,31.5898644 L123.925259,6.69522 L129.577007,6.69522 L129.577007,9.58237556 L137.504559,9.58237556 L137.504559,14.3049311 L129.577007,14.3049311 L129.577007,32.9202867 C129.577007,33.5624867 130.077566,34.06662 130.712811,34.06662 C131.353091,34.06662 131.851972,33.5624867 131.851972,32.9202867 L131.851972,19.3475311 L137.504559,19.3475311 L137.504559,31.5898644 C137.504559,34.1590867 137.413091,37.6428422 130.712811,37.6428422" id="Fill-15" fill="#DC5928"></path>
                        <path d="M146.662615,37.6428422 C140.009329,37.6428422 139.873804,34.1590867 139.873804,31.5898644 L139.873804,25.3540644 L145.522196,25.3540644 L145.522196,32.9202867 C145.522196,33.5624867 146.026112,34.06662 146.662615,34.06662 C147.29786,34.06662 147.801776,33.5624867 147.801776,32.9202867 L147.801776,24.2077311 C147.801776,23.5676422 147.29786,23.0166422 146.662615,23.0166422 L144.292406,23.0166422 C143.837161,23.0166422 143.426811,22.92502 143.062196,22.8325533 C140.783874,22.0075311 139.873804,20.4942867 139.873804,17.2389533 L139.873804,12.4260422 C139.873804,9.85766444 140.009329,6.37264222 146.662615,6.37264222 C153.359538,6.37264222 153.450587,9.85766444 153.450587,12.4260422 L153.450587,17.0561311 L147.801776,17.0561311 L147.801776,11.0964644 C147.801776,10.4542644 147.29786,9.95055333 146.662615,9.95055333 C146.026112,9.95055333 145.522196,10.4542644 145.522196,11.0964644 L145.522196,18.2024644 C145.522196,18.8425533 146.026112,19.3475311 146.662615,19.3475311 L149.029888,19.3475311 C149.485972,19.3475311 149.895063,19.48602 150.259678,19.5784867 C152.539259,20.4026644 153.450587,21.9167533 153.450587,25.1720867 L153.450587,31.5898644 C153.450587,34.1590867 153.359538,37.6428422 146.662615,37.6428422" id="Fill-16" fill="#DC5928"></path>
                        <path d="M168.267734,23.1487133 L167.082839,23.1487133 C166.443399,23.1487133 165.944937,23.6549578 165.944937,24.29378 L165.944937,32.9142911 C165.944937,33.5573356 166.443399,34.10538 167.082839,34.10538 C167.721021,34.10538 168.267734,33.5573356 168.267734,32.9142911 L168.267734,23.1487133 Z M168.267734,37.3602911 L168.267734,36.2139578 C166.947734,37.7272022 164.715566,37.9100244 163.484937,37.4975133 C161.207455,36.7180911 160.296545,35.2048467 160.296545,31.9516244 L160.296545,25.4874022 C160.296545,22.9198689 160.43249,19.3905133 167.082839,19.3905133 L168.267734,19.3905133 L168.22242,11.1394467 C168.22242,10.4985133 167.721021,9.94835778 167.082839,9.94835778 C166.443399,9.94835778 165.944937,10.4985133 165.944937,11.1394467 L165.944937,17.0986911 L160.296545,17.0986911 L160.296545,12.4690244 C160.296545,9.90149111 160.43249,6.41815778 167.082839,6.41815778 C173.779762,6.41815778 173.871231,9.90149111 173.871231,12.4690244 L173.871231,37.3602911 L168.267734,37.3602911 Z" id="Fill-17" fill="#DC5928"></path>
                        <polygon id="Fill-18" fill="#DC5928" points="176.240182 37.3599533 176.240182 6.78430889 181.841161 6.78430889 181.841161 32.6395089 185.576685 32.6395089 185.576685 37.3599533"></polygon>
                        <polygon id="Fill-19" fill="#DC5928" points="187.218042 37.3605444 192.865175 37.3605444 192.865175 6.7849 187.218042 6.7849"></polygon>
                        <polygon id="Fill-20" fill="#DC5928" points="206.439692 37.3599533 198.469762 37.3599533 194.322629 6.78430889 199.926126 6.78430889 202.43228 33.7377089 204.98249 6.78430889 210.585566 6.78430889"></polygon>
                        <path d="M219.877343,11.1395311 C219.877343,10.4981756 219.375524,9.94844222 218.739021,9.94844222 C218.101259,9.94844222 217.597762,10.4981756 217.597762,11.1395311 L217.597762,19.3905978 L219.877343,19.3905978 L219.877343,11.1395311 Z M218.739021,37.6816867 C212.088252,37.6816867 211.95021,34.1966644 211.95021,31.6295533 L211.95021,12.4686867 C211.95021,9.85597556 212.088252,6.37222 218.739021,6.37222 C225.389371,6.37222 225.524895,9.85597556 225.524895,12.4686867 L225.524895,23.1040422 L217.597762,23.1040422 L217.597762,32.9143756 C217.597762,33.55742 218.101259,34.1054644 218.739021,34.1054644 C219.375524,34.1054644 219.877343,33.55742 219.877343,32.9143756 L219.877343,25.4393533 L225.524895,25.4393533 L225.524895,31.6295533 C225.524895,34.1966644 225.389371,37.6816867 218.739021,37.6816867 Z" id="Fill-21" fill="#DC5928"></path>
                        <polygon id="Fill-22" fill="#DC5928" points="235.859119 25.6934044 231.104434 25.6934044 230.14821 0.422137778 236.871147 0.422137778"></polygon>
                        <path d="M236.666727,34.4126733 C236.666727,36.3228067 235.128126,37.8710956 233.228266,37.8710956 C231.329664,37.8710956 229.791063,36.3228067 229.791063,34.4126733 C229.791063,32.5008511 231.329664,30.9512956 233.228266,30.9512956 C235.128126,30.9512956 236.666727,32.5008511 236.666727,34.4126733" id="Fill-23" fill="#DC5928"></path>
                        <path d="M238.029944,33.0730044 C238.534699,32.4658489 239.220713,32.2061822 239.561832,32.4966711 C239.902531,32.7829378 239.767427,33.50916 239.262252,34.1129378 C238.756657,34.72136 238.070224,34.9810267 237.729524,34.6896933 C237.387566,34.4034267 237.521413,33.6759378 238.029944,33.0730044" id="Fill-24" fill="#DC5928"></path>
                        <path d="M237.013762,30.2067067 C237.518517,29.5995511 238.203692,29.3432622 238.546909,29.6291067 C238.88635,29.9183289 238.751245,30.6437067 238.244811,31.24664 C237.740476,31.8550622 237.053622,32.1134622 236.713343,31.8250844 C236.373483,31.53924 236.505231,30.8130178 237.013762,30.2067067" id="Fill-25" fill="#DC5928"></path>
                        <path d="M235.04165,28.4791 C235.546406,27.8719444 236.23242,27.6135444 236.575636,27.9015 C236.915077,28.1898778 236.781231,28.9161 236.275636,29.5203 C235.769622,30.1283 235.082769,30.3845889 234.74249,30.0974778 C234.40221,29.8082556 234.535217,29.0841444 235.04165,28.4791" id="Fill-26" fill="#DC5928"></path>
                        <path d="M231.891524,28.1506533 C232.397538,27.5443422 233.083552,27.2859422 233.421734,27.5751644 C233.765371,27.8622756 233.631105,28.5876533 233.12593,29.1939644 C232.620755,29.80112 231.931804,30.0574089 231.591524,29.7711422 C231.251245,29.48192 231.38551,28.7556978 231.891524,28.1506533" id="Fill-27" fill="#DC5928"></path>
                    </g>
                </g>
            </g>
        </g>
    </g>
</svg>