<?xml version="1.0" encoding="UTF-8"?>
<svg width="284px" height="202px" viewBox="0 0 284 202" version="1.1" xmlns="http://www.w3.org/2000/svg" xmlns:xlink="http://www.w3.org/1999/xlink">
    <!-- Generator: Sketch 52.6 (67491) - http://www.bohemiancoding.com/sketch -->
    <title>hphp</title>
    <desc>Created with Sketch.</desc>
    <defs>
        <polygon id="path-1" points="0.382828539 0.437814978 14.8482823 0.437814978 14.8482823 21.6037087 0.382828539 21.6037087"></polygon>
        <polygon id="path-3" points="0.63435904 0.421289588 64.9190078 0.421289588 64.9190078 16.685022 0.63435904 16.685022"></polygon>
    </defs>
    <g id="Visual-Design" stroke="none" stroke-width="1" fill="none" fill-rule="evenodd">
        <g id="Home" transform="translate(-579.000000, -2266.000000)">
            <g id="::-Latest" transform="translate(0.000000, 2266.000000)">
                <g id="hphp" transform="translate(579.000000, 0.000000)">
                    <path d="M0,0 L284,0 L284,152.589014 C284,160.741996 278.450439,167.848418 270.540527,169.824375 L141.738971,202 L13.4445515,169.833018 C5.54191545,167.851607 4.71830279e-14,160.748639 4.61852778e-14,152.601391 L0,0 Z" id="Rectangle" fill="#84332E"></path>
                    <g id="Group-59" transform="translate(23.147335, 24.026432)">
                        <path d="M38.4421732,25.9038971 C38.2555308,26.6060029 38.036109,26.7474919 37.3724917,26.6080051 C36.7102123,26.4685183 35.9843809,26.2402672 35.4465298,25.8731967 C34.9093476,25.5054588 34.813685,25.1056857 34.9996584,24.1840051 C35.247177,22.9459764 35.6813379,21.25545 36.1790509,19.40408 C35.1702455,19.6343333 33.9112458,19.9453421 32.8087848,20.2450051 C32.1244294,22.5482055 31.5009502,24.7219302 31.0353478,26.4144588 C30.8480364,27.1165645 30.5965041,27.2600557 29.9348937,27.1212363 C29.3033869,26.97908 28.5146724,26.692765 27.9761523,26.3563949 C27.4081975,25.9913267 27.311866,25.5915535 27.4978394,24.6705403 C27.7460269,23.49458 28.1801878,21.7106174 28.7080044,19.7004059 C28.4859067,19.2158729 28.2945815,18.6979698 28.2303605,18.3268949 C28.13336,17.77095 28.1962431,17.5787385 28.7314183,17.3831901 C28.9508402,17.3044368 29.1722689,17.2256835 29.3930287,17.1469302 C30.3877857,13.5376262 31.5076399,9.70073855 32.2876579,7.51566806 C32.6000664,6.67941476 32.9780339,6.5579478 33.6396443,6.75950286 C34.3347032,6.95905573 35.3127359,7.38819449 35.8826976,7.78463062 C36.5155423,8.23913062 36.5790944,8.51610198 36.3295689,9.25424736 C35.7368623,10.8933839 34.9267408,13.3313993 34.1172882,15.956287 C35.1876387,15.7527297 36.479418,15.5331548 37.2989051,15.4103531 C38.2334549,12.2128355 39.2288808,8.94791035 40.0082298,6.6380359 C40.2891968,5.77241696 40.6979369,5.71168348 41.3923268,5.8798685 C42.0559441,6.05005573 42.8761001,6.39643678 43.5089449,6.85160419 C44.0775686,7.24737291 44.1732311,7.58507775 43.9243746,8.32322313 C42.3951114,12.6593267 40.0597404,20.2156394 38.4421732,25.9038971" id="Fill-1" fill="#FFFFFF"></path>
                        <path d="M44.9300358,7.65502137 C44.8015938,7.03834295 44.9594705,6.90152577 45.4632042,6.73934736 C47.6346777,5.95515132 51.6672232,5.19030991 54.5665351,4.88464031 C55.2294835,4.8045522 55.6402305,5.08753018 55.7994451,5.67017115 C56.0222118,6.31154339 56.1192123,6.7740522 56.1841023,7.39473502 C56.2182197,8.08082313 56.0302394,8.34511388 55.3371875,8.45790463 C53.8882005,8.72086057 52.0920186,9.07124604 50.3914992,9.47702577 C49.9238899,10.7944751 49.3619559,12.3061381 48.8000218,13.8805368 C49.5873984,13.6976689 50.3761129,13.5775368 51.2263726,13.4841007 C51.9187556,13.4020104 52.29873,13.5308187 52.5214967,14.1087879 C52.7442634,14.7187923 52.904147,15.2700654 52.969706,15.8914156 C53.0667065,16.5728319 52.8773883,16.774387 52.1850053,16.9812813 C50.5788106,17.4117548 48.7839666,17.8876117 47.2092134,18.4095192 C46.8667013,19.4046139 46.5241891,20.3997086 46.2432221,21.3273958 C47.5350013,20.983017 48.6689039,20.74342 50.0228973,20.5505412 C50.7159492,20.437083 51.1273652,20.5638892 51.3501319,21.1418584 C51.6050091,21.780561 51.7642237,22.3318341 51.8297827,22.9531844 C51.9267832,23.6346007 51.7702445,23.864854 51.0771925,24.0724156 C49.2816796,24.6103407 47.2667448,25.1956513 45.5668944,25.7896381 C44.6223101,26.1086557 44.148011,26.0185566 43.5793873,25.5907526 C43.1679713,25.2764068 42.7572243,24.8999927 42.3136978,24.3380412 C41.964496,23.8942196 41.7417293,23.2214795 41.9283717,22.3318341 C42.547168,19.501387 44.3239499,13.8952196 45.6946675,9.66456542 C45.3454656,9.09527247 45.0578089,8.2089641 44.9300358,7.65502137" id="Fill-3" fill="#FFFFFF"></path>
                        <path d="M57.2596039,24.9027958 C56.1892534,25.2938927 55.6219676,25.2104676 55.0841165,24.7799941 C54.641259,24.43695 54.2619535,24.0892341 53.818427,23.4959148 C53.4056731,22.9312936 53.2464585,22.4427562 53.4324319,21.6151791 C54.3315263,17.6695051 56.7919945,9.57193018 58.4777965,5.25584868 C58.7908741,4.48166366 59.1989452,4.35752709 59.8625625,4.52838172 C60.5569524,4.69656674 61.5356541,5.06296982 62.1357193,5.48877159 C62.7371225,5.91390595 62.8006746,6.22224515 62.5203766,6.96239273 C61.2091972,10.5002848 59.4003049,15.7961108 57.9687111,20.4071835 C59.1969383,20.066809 60.2666198,19.8639192 61.559737,19.6750447 C62.2527889,19.562254 62.6300875,19.6596945 62.8856337,20.2663619 C63.1398419,20.8736967 63.2997255,21.4563377 63.3652845,22.0776879 C63.4943955,22.757102 63.462954,22.9466438 62.6133633,23.1969192 C60.8178503,23.7348443 58.9607922,24.2774412 57.2596039,24.9027958" id="Fill-5" fill="#FFFFFF"></path>
                        <path d="M76.6792405,7.89808877 C76.581571,7.21667247 74.7532786,7.3194522 72.7717922,8.37127599 C72.2098582,9.91497423 71.586379,11.74432 70.9314583,13.7011394 C74.8027823,12.0092782 76.9046831,9.1334478 76.6792405,7.89808877 M67.8174074,23.8483024 C67.5993235,24.5217099 67.3799016,24.6945667 66.7162843,24.55508 C66.117557,24.4429566 65.3275045,24.1559742 64.8210949,23.817602 C64.2852507,23.4498641 64.1882502,23.0187231 64.3735546,22.1290778 C64.9622474,19.2071967 66.6119251,13.6103729 68.0134153,9.00130242 C67.7906486,8.57950507 67.4735573,8.00820991 67.2822321,7.49030683 C66.9644718,6.73080463 67.025348,6.35105352 67.6862894,5.92725396 C70.7688989,3.98044559 76.7200476,2.04364824 78.6185818,4.22004251 C79.3791996,5.10368128 80.0782723,6.24159978 80.3050528,8.00820991 C80.5325023,9.7441196 79.6227044,11.1877077 78.462043,12.5245117 C76.5795641,14.7583024 72.7731302,17.0715139 69.4670851,18.2835139 C68.8757164,20.2036262 68.2836788,22.0937055 67.8174074,23.8483024" id="Fill-7" fill="#FFFFFF"></path>
                        <path d="M87.420007,5.5162685 C85.9843994,9.50198656 83.4008409,18.0146848 82.1251169,22.67648 C81.9391435,23.3792531 81.6876112,23.5220769 81.0246628,23.3832575 C80.3623834,23.2437707 79.6044415,22.9547861 79.0672593,22.6190835 C78.4979667,22.2540152 78.4029731,21.8535747 78.5876085,20.9332289 C79.3308332,17.3112443 81.9745989,7.79277291 83.3466544,3.78035881 C83.6276214,3.00884339 84.0363615,2.85333899 84.7300824,3.02219141 C85.4251413,3.19037643 86.4031741,3.65088304 86.9731357,4.04665176 C87.6053114,4.50115176 87.6695325,4.77879053 87.420007,5.5162685" id="Fill-9" fill="#FFFFFF"></path>
                        <path d="M98.8219157,2.64817996 C99.1022137,1.8452967 99.5122917,1.68979229 100.206013,1.85797731 C100.679643,1.98011167 101.216156,2.19101035 101.626903,2.41192004 C102.321293,2.79901256 102.543391,3.15807423 102.23232,4.18253458 C100.83083,8.75956982 98.5275693,16.3759487 97.2525143,21.2886866 C97.0672098,22.0528606 96.5634761,22.2464068 95.8062031,22.1142615 C95.2382484,21.9994685 94.5431896,21.7678804 94.0381179,21.5236117 C93.4701632,21.2519795 93.1524029,20.8375236 92.9289672,20.0086117 C92.3850954,17.7014068 91.9944174,14.6006623 91.7274988,10.5835764 C90.9481498,13.1130258 89.6095428,17.6226535 88.3665982,22.1262747 C88.1786179,22.7970126 87.8648714,23.0079112 87.1704816,22.8397262 C86.728293,22.7155896 86.1603383,22.4753253 85.8124744,22.2817791 C85.1180845,21.8946866 84.9274283,21.595691 85.2057194,20.2295214 C85.8873989,16.9879553 88.5639441,7.93599714 90.0912005,3.34961828 C90.3099534,2.73894648 90.6243688,2.49667996 91.0973299,2.46197511 C91.6017326,2.42526806 92.8326357,2.77298392 93.7477854,3.17609405 C94.4742858,3.49778128 94.6335004,3.83081432 94.6997283,4.67107203 C94.900419,7.59762489 95.1338892,11.1795654 95.4309115,14.5058914 C96.2376882,11.0988099 97.7615997,5.72956982 98.8219157,2.64817996" id="Fill-11" fill="#FFFFFF"></path>
                        <g id="Group-15" transform="translate(100.345359, 0.229586)">
                            <mask id="mask-2" fill="white">
                                <use xlink:href="#path-1"></use>
                            </mask>
                            <g id="Clip-14"></g>
                            <path d="M13.1618324,9.32399075 C11.3957541,9.20252379 10.6986884,8.22144449 10.7241092,6.77985859 C10.7522059,5.68198414 10.9983865,4.13094449 10.5254254,4.00947753 C9.57883417,3.76520881 7.32173256,7.15427048 5.82190393,10.8309819 C4.54082818,13.9597573 4.08392231,17.8113278 5.18839023,18.2311229 C6.1035399,18.57083 7.54650617,16.7127859 8.61016697,14.4449577 C7.00330329,14.6565238 6.24402341,13.9290568 6.0473465,12.1911449 C5.98312547,11.6325304 6.26609939,11.4556692 6.80060566,11.2914885 C7.87162513,10.9310921 9.66646911,10.4872705 10.6438329,10.2903872 C11.5576446,10.0981758 12.0306058,10.2203101 12.4420217,10.7535634 C12.7283405,11.1393211 12.9812108,11.5904841 13.171867,11.9522154 C13.5217378,12.6770128 13.4923032,13.1488652 13.1477841,13.9877881 C11.961033,16.9537176 10.3621969,19.2609225 8.69579501,20.5409974 C7.62812039,21.3699093 6.4299968,21.7076141 5.23187322,21.5761361 C4.12874324,21.469352 3.15004151,21.1343167 2.26499544,20.6044004 C1.60137813,20.1832705 0.904981344,19.358363 0.649435163,18.4066493 C-0.597523164,13.9917925 2.67908729,5.11536079 7.3618707,1.3305304 C8.33655862,0.538992952 9.53401324,0.388827753 10.4170524,0.449561233 C11.614507,0.518303524 13.0367352,1.00951057 13.8261187,1.73364053 C14.5860676,2.42907225 14.8101722,3.25798414 14.8456276,4.38188722 C14.8817519,5.53649075 14.5425846,7.56405463 14.231514,8.55714714 C14.0435337,9.1344489 13.8241118,9.36937401 13.1618324,9.32399075" id="Fill-13" fill="#FFFFFF" mask="url(#mask-2)"></path>
                        </g>
                        <path d="M32.7559362,43.4006789 C32.6368597,41.7441899 28.1674774,42.0732185 23.159575,44.7234674 C21.5266216,48.5089652 19.6923084,52.9945665 17.7609947,57.7918441 C27.4791083,53.5024586 33.0917587,46.4013132 32.7559362,43.4006789 M8.42887635,82.6598683 C7.7813143,84.3096833 7.21603545,84.7394894 5.62656496,84.4284806 C4.18627458,84.1802075 2.31383018,83.5154762 1.14112742,82.712593 C-0.103823998,81.8403 -0.263707603,80.7938154 0.341709396,78.6174211 C2.27703688,71.4702251 7.25951844,57.7578066 11.4653269,46.4633815 C10.9970486,45.4455952 10.3227278,44.0674123 9.94609818,42.8126987 C9.30254995,40.9760115 9.51862695,40.0469894 11.1990772,38.985822 C19.0400636,34.1084564 33.8644179,29.1289784 38.1157163,34.3520577 C39.8128908,36.4717229 41.3167333,39.2154079 41.5655897,43.5121348 C41.820467,47.7334454 39.3586608,51.2900247 36.3001343,54.5983308 C31.3290252,60.1257449 21.6630913,65.926126 13.4053372,69.0235335 C11.6339071,73.7300445 9.86649086,78.3611392 8.42887635,82.6598683" id="Fill-16" fill="#A2C139"></path>
                        <path d="M44.7464707,36.1013154 C44.5397593,34.6043352 44.9471614,34.2646282 46.2014784,33.84817 C51.6261485,31.8412956 61.5763943,29.8037207 68.6888734,28.9327626 C70.3144682,28.7091833 71.2664111,29.3819233 71.5540678,30.7954784 C71.9868908,32.3471855 72.1420916,33.4710885 72.1942712,34.9814167 C72.1594848,36.6519211 71.6550822,37.3033044 69.9485421,37.6096414 C66.3735714,38.3117471 61.9409825,39.2434388 57.7291533,40.3066084 C56.3631184,43.537496 54.7348477,47.2469101 53.0958736,51.1084916 C55.0452494,50.6286304 56.9839217,50.3009366 59.0717742,50.0366458 C60.7743004,49.8070599 61.6740638,50.1047207 62.1169213,51.5042604 C62.5550961,52.9805511 62.8494424,54.3180225 62.901622,55.8290181 C63.0200295,57.4848396 62.5269994,57.9847229 60.804404,58.519311 C56.8186864,59.6378749 52.3653593,60.8745687 48.4425248,62.2147097 C47.4357263,64.6547273 46.4295969,67.0947449 45.5860269,69.3692471 C48.7897197,68.4729278 51.5927001,67.8402317 54.924835,67.3116502 C56.632713,67.0053132 57.6100768,67.2956326 58.0529343,68.6958396 C58.5620197,70.2408727 58.8563661,71.5783441 58.9078767,73.0893396 C59.0276222,74.7451612 58.6068407,75.3144542 56.8835764,75.8497097 C52.4208838,77.2385709 47.4116435,78.7529035 43.1697106,80.2739101 C40.8142706,81.092811 39.6776922,80.8925907 38.3658438,79.874137 C37.4192526,79.126648 36.482027,78.2263242 35.4999804,76.8748374 C34.7273211,75.8083308 34.3005189,74.1798727 34.9059359,72.002811 C36.9028085,65.0778595 42.1936848,51.3374101 46.2616856,40.9660004 C45.5097644,39.5938242 44.9638857,37.4454608 44.7464707,36.1013154" id="Fill-18" fill="#A2C139"></path>
                        <path d="M78.4372912,51.6950035 C75.262364,59.0297392 73.1484218,68.845204 75.9266503,69.7301775 C78.6266094,70.6224925 83.4686075,63.5920916 87.1606477,54.2398031 C90.0218284,47.0085145 92.4180756,36.4095211 90.0010903,35.8702612 C87.6603676,35.3249947 81.6169011,44.2835167 78.4372912,51.6950035 M100.723995,37.1730278 C100.570133,47.493715 95.1381037,64.5057634 85.8541511,73.7579419 C82.7334105,76.8440035 79.5203521,77.8924903 75.7707805,77.7776974 C73.3223538,77.695607 70.4524765,77.0468934 68.538556,75.8555828 C67.067493,74.9278956 65.5087951,73.0231335 64.972282,70.7219352 C62.3853786,60.1196048 70.3929382,40.1456313 81.7025292,30.407585 C84.062652,28.3753493 87.5948086,27.1453295 90.0385526,27.3035035 C93.2475972,27.4683515 96.472697,28.5401974 98.1290644,30.1332833 C100.074426,32.0033405 100.764803,34.2898559 100.723995,37.1730278" id="Fill-20" fill="#A2C139"></path>
                        <path d="M128.105635,34.7713857 C127.987227,33.1148967 123.517845,33.4439253 118.509943,36.0941742 C116.87632,39.879672 115.042676,44.3652733 113.111362,49.1632183 C122.829476,44.8731654 128.442126,37.77202 128.105635,34.7713857 M103.779913,74.0305751 C103.131682,75.6803901 102.565734,76.1101963 100.976933,75.7991874 C99.5366422,75.5509143 97.6641978,74.8868504 96.4914951,74.0832998 C95.2465436,73.2110068 95.08666,72.1645222 95.692077,69.988128 C97.6274045,62.8409319 102.609217,49.1285134 106.816364,37.8340883 C106.347416,36.816302 105.673095,35.4374518 105.296466,34.1834055 C104.652249,32.3467183 104.868995,31.4176963 106.549445,30.3565289 C114.390431,25.4791632 129.214786,20.4996852 133.465415,25.7227645 C135.163927,27.8424297 136.667101,30.5861148 136.915957,34.8828416 C137.170835,39.1041522 134.709028,42.6607315 131.650502,45.9690377 C126.679393,51.4964518 117.013459,57.2968328 108.755705,60.3942403 C106.984275,65.1014187 105.216858,69.7325134 103.779913,74.0305751" id="Fill-22" fill="#A2C139"></path>
                        <path d="M138.987487,71.5260198 C136.312949,72.5257863 134.944907,72.3462555 133.70999,71.3217952 C132.691819,70.5042291 131.826842,69.673315 130.848809,68.2457445 C129.943025,66.8882511 129.639313,65.7036145 130.234696,63.6787203 C133.104573,54.0220969 140.49066,34.1802687 145.340686,23.5872819 C146.23376,21.687859 147.251931,21.3675066 148.836718,21.7552665 C150.497769,22.135685 152.817753,22.9866211 154.206533,23.9970661 C155.595313,25.0081784 155.698334,25.7563348 154.887544,27.5736674 C151.086461,36.2532159 145.769495,49.2381674 141.485417,60.5392665 C144.535247,59.6562952 147.178344,59.1143656 150.356616,58.5991322 C152.063825,58.2927952 152.96894,58.5143722 153.484715,59.9833216 C153.998484,61.4522709 154.288147,62.8664934 154.340327,64.3768216 C154.536335,66.0266366 154.428631,66.4904802 152.315358,67.1371916 C147.851996,68.5260529 143.234103,69.9289295 138.987487,71.5260198" id="Fill-24" fill="#A2C139"></path>
                        <path d="M166.479239,25.0846626 C166.272527,23.5876824 166.679929,23.2473079 167.934246,22.8315172 C173.358917,20.8239753 183.309162,18.7870678 190.421641,17.9161097 C192.047236,17.6925304 192.999179,18.3646031 193.286836,19.7781581 C193.719659,21.3305326 193.87486,22.4537683 193.927039,23.9647639 C193.892253,25.6346009 193.388519,26.2866515 191.68131,26.5923211 C188.106339,27.2950943 183.67375,28.2267859 179.46259,29.2899555 C178.095886,32.5208432 176.467616,36.2302573 174.828642,40.0911714 C176.778017,39.6119775 178.71669,39.2842837 180.804542,39.019993 C182.507068,38.790407 183.406832,39.0874004 183.849689,40.4876075 C184.287864,41.9638982 184.58221,43.3013696 184.63439,44.8116978 C184.752798,46.4681868 184.259767,46.96807 182.537172,47.5026581 C178.551454,48.621222 174.098796,49.8579159 170.175293,51.1980568 C169.168494,53.6380744 168.162365,56.0780921 167.319464,58.3519269 C170.523157,57.4562749 173.325468,56.8235789 176.658272,56.29433 C178.365481,55.9886604 179.342845,56.2789797 179.785702,57.6791868 C180.294788,59.2242198 180.589134,60.5616912 180.641314,62.0726868 C180.76039,63.7285084 180.339609,64.2978013 178.616344,64.8323894 C174.153652,66.2212507 169.14508,67.7362507 164.902479,69.2565899 C162.547708,70.0761581 161.41046,69.8752705 160.098612,68.8574841 C159.152021,68.1093278 158.215464,67.209004 157.232748,65.8581846 C156.460089,64.791678 156.033287,63.1625524 156.638704,60.9861581 C158.635577,54.0612066 163.926453,40.3200899 167.994454,29.9486802 C167.242532,28.5771714 166.696654,26.4288079 166.479239,25.0846626" id="Fill-26" fill="#A2C139"></path>
                        <path d="M110.394278,88.7161976 C110.275201,87.0597086 105.805819,87.3880698 100.798585,90.0389861 C99.164963,93.8244839 97.3313188,98.3100852 95.3993362,103.107363 C105.118119,98.8173099 110.7301,91.7168319 110.394278,88.7161976 M86.0678868,127.97472 C85.4209937,129.624535 84.8550459,130.055008 83.2649064,129.743999 C81.825285,129.495726 79.9528406,128.831662 78.7801378,128.027444 C77.5351864,127.155151 77.3753028,126.109334 77.9813888,123.932272 C79.9153783,116.785076 84.8978599,103.072658 89.1043373,91.7789002 C88.636059,90.7604465 87.9617382,89.3822637 87.5851086,88.12755 C86.9408914,86.2908628 87.1576374,85.3625081 88.8374187,84.3006733 C96.679074,79.4233077 111.503428,74.4444971 115.754727,79.666909 C117.45257,81.7872416 118.955075,84.5309267 119.203931,88.8276535 C119.458808,93.0489641 116.997002,96.6055434 113.938476,99.9138496 C108.967367,105.441264 99.3021017,111.241645 91.0436786,114.338385 C89.2729175,119.045563 87.5055013,123.676658 86.0678868,127.97472" id="Fill-28" fill="#A2C139"></path>
                        <path d="M122.385414,81.4168341 C122.178703,79.919854 122.585436,79.5794795 123.840422,79.1630214 C129.264423,77.1568143 139.215338,75.118572 146.327817,74.2482813 C147.952743,74.024702 148.904686,74.6967747 149.193011,76.1109971 C149.625834,77.6627042 149.780366,78.7859399 149.832546,80.2969355 C149.797759,81.9667725 149.294026,82.6181557 147.587486,82.9251601 C144.012515,83.6272659 139.579926,84.5589575 135.368097,85.6221271 C134.002062,88.8523474 132.373791,92.5617615 130.734148,96.423343 C132.684193,95.9441491 134.622865,95.6164553 136.710718,95.3521645 C138.412575,95.1225786 139.312338,95.4202394 139.755865,96.8197791 C140.19404,98.2960698 140.487717,99.6328738 140.539897,101.144537 C140.658973,102.800358 140.165274,103.300242 138.442679,103.83483 C134.45763,104.953394 130.004303,106.18942 126.080799,107.529561 C125.074001,109.970246 124.067871,112.410931 123.22497,114.684766 C126.429332,113.788446 129.230975,113.15575 132.563778,112.627169 C134.270988,112.320832 135.248351,112.611151 135.691878,114.011358 C136.200963,115.556391 136.49531,116.893863 136.547489,118.404858 C136.666566,120.061347 136.245115,120.629973 134.523189,121.164561 C130.059158,122.553422 125.050587,124.068422 120.808654,125.589429 C118.453214,126.40833 117.316636,126.207442 116.004787,125.189656 C115.057527,124.442167 114.12097,123.541843 113.138255,122.190356 C112.365596,121.12385 111.938793,119.495391 112.54421,117.31833 C114.541752,110.393378 119.832628,96.6529289 123.900629,86.2808518 C123.148708,84.909343 122.60216,82.7616469 122.385414,81.4168341" id="Fill-30" fill="#A2C139"></path>
                        <path d="M172.015827,81.0928778 C167.054084,93.3643778 161.162473,109.205138 156.967368,121.482644 C156.396738,123.125785 155.836142,123.479508 154.24734,123.168499 C152.65787,122.85749 150.934605,122.256162 149.612723,121.389876 C148.290171,120.524924 148.21257,119.395014 148.818656,117.217953 C150.974075,109.065651 156.371986,93.7247742 160.260034,83.7484659 C158.388259,84.2209857 156.511131,84.7695892 155.339098,85.1026222 C153.698786,85.55512 152.859898,85.4790363 152.103294,84.1829438 C151.279793,82.7420253 150.523189,80.3100165 150.311126,78.88912 C150.105084,77.3921399 150.669694,76.9623337 151.925349,76.5458756 C159.283339,74.2880584 170.776897,72.1109967 177.960955,71.3094482 C179.735061,71.1486046 180.321747,71.5510474 180.810764,72.2638315 C181.711196,73.6974086 182.267778,75.694272 182.402241,77.1218425 C182.527338,78.7015804 182.342034,79.1734328 180.479624,79.4937852 C177.995742,79.9456156 174.735187,80.5436068 172.015827,81.0928778" id="Fill-32" fill="#A2C139"></path>
                        <path d="M177.868036,108.223992 C182.153451,111.776567 186.463619,112.674888 188.504644,110.822851 C190.864766,108.790615 183.162926,104.713463 179.386595,100.432086 C176.751526,97.4120974 175.700576,92.5060335 178.618619,86.7096568 C181.110529,81.5579894 186.275639,75.4072229 191.097568,72.0909079 C192.943922,70.8628903 195.951607,69.454007 199.115162,70.3042758 C201.522113,70.9963705 204.181934,72.4986899 205.535258,74.0430555 C207.537482,76.2107736 207.132087,78.8243154 206.762147,80.9039366 C205.98815,84.4598485 203.661476,90.5812493 201.831176,93.8541833 C200.962854,95.3725203 200.171464,95.7475996 198.82416,95.2637339 C195.00234,93.9416128 193.386111,91.7385225 194.284536,88.6257648 C195.085292,85.8253507 197.787927,79.8214123 196.892178,79.4476678 C195.33348,78.678822 184.709582,89.6442185 188.501968,94.8339278 C192.654928,100.368016 202.345613,103.356637 198.255537,110.62263 C195.296018,115.89176 190.803221,120.011626 184.47745,120.584256 C179.385926,121.044763 174.606811,119.127987 170.696018,113.419707 C168.668373,110.495824 169.053699,109.324536 170.570252,108.429551 C173.043431,106.993304 176.339441,106.997976 177.868036,108.223992" id="Fill-34" fill="#A2C139"></path>
                        <g id="Group-38" transform="translate(8.696598, 113.687736)">
                            <mask id="mask-4" fill="white">
                                <use xlink:href="#path-3"></use>
                            </mask>
                            <g id="Clip-37"></g>
                            <path d="M2.54388864,8.05012269 C8.70107986,6.23145529 33.7680195,-2.11305793 64.1619597,1.18456982 C64.9680674,1.27266674 65.2282964,2.69356322 64.4569751,2.79701035 C50.3363762,4.69776806 14.1946538,9.70928128 2.87302142,16.5341227 C1.88629206,17.1294443 0.514905485,15.865387 0.642678575,14.4691844 L0.737672182,10.5755676 C0.854072798,9.30683855 1.53842815,8.34711608 2.54388864,8.05012269" id="Fill-36" fill="#F9BB3B" mask="url(#mask-4)"></path>
                        </g>
                        <path d="M37.4132988,109.885953 C37.2266564,110.588059 37.0065656,110.729548 36.3429483,110.590061 C35.6806689,110.450574 34.9548375,110.222323 34.4169864,109.854585 C33.8804732,109.487515 33.7841416,109.087742 33.970115,108.166061 C34.2176336,106.928033 34.6524635,105.237506 35.1495075,103.386136 C34.1413711,103.616389 32.8817024,103.927398 31.7799103,104.227061 C31.094886,106.530262 30.4720758,108.703986 30.0064734,110.396515 C29.819162,111.098621 29.5669607,111.242112 28.9040124,111.103293 C28.2738435,110.961136 27.48446,110.674821 26.9472779,110.338451 C26.3786542,109.973383 26.2816536,109.57361 26.468296,108.652596 C26.7158146,107.476636 27.1506445,105.692674 27.678461,103.682462 C27.4563633,103.197929 27.2650382,102.680026 27.2008171,102.308951 C27.1044856,101.753006 27.1660307,101.560795 27.701206,101.364579 C27.9219658,101.286493 28.1427256,101.20774 28.3628164,101.128986 C29.3575734,97.5203498 30.4787655,93.6827947 31.2587834,91.4977242 C31.570523,90.6614709 31.9484905,90.540004 32.6114389,90.741559 C33.3051598,90.9411119 34.2838615,91.3702507 34.8538232,91.7666868 C35.4859989,92.2211868 35.549551,92.4981581 35.3000255,93.2363035 C34.7073189,94.8754401 33.8965284,97.3134555 33.0870759,99.9383432 C34.1594333,99.7347859 35.4498746,99.515211 36.2693617,99.3924093 C37.2032425,96.1948916 38.2000064,92.9299665 38.9793554,90.6200921 C39.2603224,89.7544731 39.6697314,89.6930722 40.3634523,89.8619247 C41.0257317,90.0321119 41.8472257,90.378493 42.4787325,90.8336604 C43.0486941,91.2294291 43.1443567,91.5671339 42.8948313,92.3052793 C41.366237,96.6413828 39.030866,104.197696 37.4132988,109.885953" id="Fill-39" fill="#FFFFFF"></path>
                        <path d="M43.9010945,91.6366771 C43.7726525,91.0206661 43.9291912,90.8838489 44.4335939,90.7216705 C46.6057364,89.936807 50.6382819,89.172633 53.5375938,88.866296 C54.1998732,88.7868753 54.6106202,89.0698533 54.7705038,89.6524943 C54.9932705,90.2931991 55.089602,90.7557079 55.154492,91.3763907 C55.1892784,92.0624789 55.0006292,92.3267696 54.3082462,92.4402278 C52.8592592,92.7025163 51.0624083,93.0529018 49.361889,93.4586815 C48.8936106,94.7761308 48.3323456,96.2884612 47.7704116,97.8628599 C48.5584571,97.6799921 49.3458337,97.5598599 50.1967623,97.4657564 C50.8898143,97.3843335 51.2691197,97.5131419 51.4912175,98.091111 C51.7153221,98.700448 51.8745367,99.2523885 51.9400957,99.8730714 C52.0370962,100.554488 51.8484469,100.756043 51.156064,100.963604 C49.5498693,101.394078 47.7550253,101.869267 46.1796031,102.391175 C45.8377599,103.38627 45.4939099,104.382032 45.2136118,105.309719 C46.5053911,104.964673 47.6386247,104.725743 48.993956,104.532197 C49.6870079,104.418739 50.097086,104.545545 50.3205216,105.123514 C50.5747299,105.762217 50.7352824,106.314157 50.8001724,106.93484 C50.8971729,107.616256 50.7413032,107.847177 50.0482512,108.054071 C48.2527383,108.591996 46.2364655,109.177974 44.5366151,109.771294 C43.5926998,110.090979 43.1190697,110.00088 42.5491081,109.573076 C42.13903,109.25873 41.728283,108.881648 41.2840876,108.319697 C40.9355547,107.875875 40.712788,107.203803 40.8987614,106.314157 C41.5175578,103.483043 43.2943396,97.8775427 44.6650572,93.6462211 C44.3158553,93.0769282 44.0288676,92.1906198 43.9010945,91.6366771" id="Fill-41" fill="#FFFFFF"></path>
                        <path d="M56.2299936,108.884852 C55.1603121,109.275949 54.5923573,109.192524 54.0545062,108.76205 C53.6116487,108.419006 53.2323432,108.07129 52.7874788,107.477971 C52.3767318,106.91335 52.2175172,106.424145 52.4028216,105.597235 C53.302585,101.651561 55.7623842,93.5539863 57.4488552,89.2379048 C57.7605948,88.4637198 58.1700039,88.3395833 58.8329522,88.5104379 C59.5273421,88.6786229 60.5060438,89.045026 61.1061091,89.4708278 C61.7068433,89.8959621 61.7710643,90.2043013 61.4900973,90.9444489 C60.1795869,94.482341 58.3706946,99.778167 56.9384318,104.38924 C58.167328,104.048865 59.2376785,103.845975 60.5301267,103.657101 C61.2231787,103.54431 61.6018151,103.641751 61.8560234,104.248418 C62.1109006,104.855753 62.2701152,105.438394 62.3356742,106.059744 C62.4647852,106.739158 62.4333437,106.9287 61.583084,107.178975 C59.788909,107.7169 57.9305129,108.259497 56.2299936,108.884852" id="Fill-43" fill="#FFFFFF"></path>
                        <path d="M75.6496971,91.8801449 C75.5526966,91.1987286 73.7237352,91.3015084 71.7422488,92.3533322 C71.1803148,93.8970304 70.5568357,95.7263762 69.901915,97.6831956 C73.7739079,95.9920018 75.8751397,93.115504 75.6496971,91.8801449 M66.787864,107.831026 C66.5697801,108.503766 66.3503582,108.676623 65.6867409,108.537136 C65.0880136,108.425013 64.2979611,108.13803 63.7922205,107.799658 C63.2557073,107.43192 63.1593758,107.000779 63.3446802,106.111134 C63.9320351,103.189253 65.5823817,97.5924291 66.9838719,92.9833586 C66.7617742,92.5615612 66.4440139,91.9902661 66.2526887,91.472363 C65.9355974,90.7128608 65.9964736,90.3331097 66.656746,89.9093101 C69.7386865,87.9625018 75.6911732,86.0257044 77.5897074,88.2020987 C78.3503252,89.08507 79.0480599,90.2236559 79.2755094,91.9902661 C79.5029589,93.7261758 78.5938299,95.1697639 77.4324997,96.5065678 C75.5500207,98.7403586 71.7429178,101.05357 68.4382107,102.264903 C67.846173,104.185682 67.2541354,106.075762 66.787864,107.831026" id="Fill-45" fill="#FFFFFF"></path>
                        <polygon id="Fill-47" fill="#DC5928" points="228.119787 90.3299062 213.546296 89.3454899 216.01613 8.28698326 236.787619 9.68985991"></polygon>
                        <path d="M227.746101,114.50657 C227.427672,119.195061 223.361678,122.73629 218.66217,122.418607 C213.964001,122.101592 210.413113,118.046464 210.730873,113.357973 C211.049302,108.670149 215.115296,105.128253 219.814135,105.445268 C224.513643,105.762951 228.06453,109.819413 227.746101,114.50657" id="Fill-49" fill="#DC5928"></path>
                        <path d="M231.339803,111.448873 C232.693127,110.045329 234.433116,109.527426 235.229189,110.292267 C236.023924,111.054439 235.57237,112.81304 234.218377,114.21258 C232.863714,115.617459 231.124395,116.134694 230.328991,115.371855 C229.534255,114.608348 229.985809,112.84908 231.339803,111.448873" id="Fill-51" fill="#DC5928"></path>
                        <path d="M229.303528,104.248218 C230.65819,102.846009 232.396841,102.32944 233.194252,103.091612 C233.988318,103.854451 233.535426,105.612385 232.182102,107.011925 C230.830115,108.415469 229.08812,108.934707 228.293385,108.169865 C227.497311,107.409696 227.950873,105.653097 229.303528,104.248218" id="Fill-53" fill="#DC5928"></path>
                        <path d="M224.710253,99.6790579 C226.062239,98.2748465 227.805572,97.7576108 228.600977,98.5197826 C229.395043,99.284624 228.943489,101.039888 227.590164,102.442765 C226.234833,103.846976 224.494845,104.364212 223.700109,103.600038 C222.904036,102.837199 223.35559,101.079265 224.710253,99.6790579" id="Fill-55" fill="#DC5928"></path>
                        <path d="M216.969411,98.3475264 C218.324073,96.9459846 220.0654,96.4260793 220.859466,97.1915881 C221.65487,97.9544273 221.202647,99.710359 219.848654,101.11457 C218.496667,102.517447 216.754003,103.032681 215.958599,102.271176 C215.164532,101.504333 215.615418,99.7504031 216.969411,98.3475264" id="Fill-57" fill="#DC5928"></path>
                    </g>
                </g>
            </g>
        </g>
    </g>
</svg>